<?xml version="1.0" encoding="UTF-8" standalone="no"?><svg xmlns="http://www.w3.org/2000/svg" xmlns:xlink="http://www.w3.org/1999/xlink" contentScriptType="application/ecmascript" contentStyleType="text/css" height="765px" preserveAspectRatio="none" style="width:3323px;height:765px;background:#FFFFFF;" version="1.1" viewBox="0 0 3323 765" width="3323px" zoomAndPan="magnify"><defs><filter height="300%" id="fuv4uoczchasa" width="300%" x="-1" y="-1"><feGaussianBlur result="blurOut" stdDeviation="2.0"/><feColorMatrix in="blurOut" result="blurOut2" type="matrix" values="0 0 0 0 0 0 0 0 0 0 0 0 0 0 0 0 0 0 .4 0"/><feOffset dx="4.0" dy="4.0" in="blurOut2" result="blurOut3"/><feBlend in="SourceGraphic" in2="blurOut3" mode="normal"/></filter></defs><g><!--MD5=[8fb3df28e9821bb9053373b7c787b1ff]
class FlyingObject--><rect codeLine="3" fill="#FEFECE" filter="url(#fuv4uoczchasa)" height="348.459" id="FlyingObject" style="stroke:#A80036;stroke-width:1.5;" width="354" x="1385.5" y="7"/><ellipse cx="1523.75" cy="23" fill="#A9DCDF" rx="11" ry="11" style="stroke:#A80036;stroke-width:1.0;"/><path d="M1524.8281,24 L1521.7969,24 L1521.2031,25.5938 Q1521.1563,25.7656 1521.1563,25.9063 Q1521.1563,26.0938 1521.2031,26.2031 Q1521.25,26.3125 1521.4688,26.3125 L1522.0156,26.3125 L1522.0156,28 L1518.75,28 L1518.75,26.3125 L1519.3125,26.3125 Q1519.5313,26.3125 1519.6406,26.25 Q1519.7656,26.1875 1519.8125,26 L1522.7813,16.3125 L1524.4063,16.3125 L1527.3125,25.8906 Q1527.4063,26.125 1527.5469,26.2188 Q1527.6875,26.3125 1527.875,26.3125 L1528.4375,26.3125 L1528.4375,28 L1524.7813,28 L1524.7813,26.3125 L1525.3906,26.3125 Q1525.5625,26.3125 1525.5625,26.2969 Q1525.5781,26.2813 1525.5781,26.2188 Q1525.5781,26.0469 1525.5469,25.9531 L1524.8281,24 Z M1519.6094,27 L1519.6094,27 Z M1520.2813,27 L1520.2813,27 Z M1525,27 L1525,27 Z M1526.125,27 L1526.125,27 Z M1523.3281,17.9063 L1523.4063,17.9063 L1522.1875,22.3125 L1524.5156,22.3125 L1523.3281,17.9063 Z " fill="#000000"/><text fill="#000000" font-family="sans-serif" font-size="12" font-style="italic" lengthAdjust="spacing" textLength="69" x="1544.25" y="28.5576">FlyingObject</text><line style="stroke:#A80036;stroke-width:1.5;" x1="1386.5" x2="1738.5" y1="39" y2="39"/><polygon fill="none" points="1396.5,45,1400.5,49,1396.5,53,1392.5,49" style="stroke:#B38D22;stroke-width:1.0;"/><text fill="#000000" font-family="sans-serif" font-size="11" lengthAdjust="spacing" textLength="58" x="1405.5" y="55.606">int locationX</text><polygon fill="none" points="1396.5,60.0229,1400.5,64.0229,1396.5,68.0229,1392.5,64.0229" style="stroke:#B38D22;stroke-width:1.0;"/><text fill="#000000" font-family="sans-serif" font-size="11" lengthAdjust="spacing" textLength="59" x="1405.5" y="70.6289">int locationY</text><polygon fill="none" points="1396.5,75.0459,1400.5,79.0459,1396.5,83.0459,1392.5,79.0459" style="stroke:#B38D22;stroke-width:1.0;"/><text fill="#000000" font-family="sans-serif" font-size="11" lengthAdjust="spacing" textLength="51" x="1405.5" y="85.6519">int speedX</text><polygon fill="none" points="1396.5,90.0688,1400.5,94.0688,1396.5,98.0688,1392.5,94.0688" style="stroke:#B38D22;stroke-width:1.0;"/><text fill="#000000" font-family="sans-serif" font-size="11" lengthAdjust="spacing" textLength="52" x="1405.5" y="100.6748">int speedY</text><polygon fill="none" points="1396.5,105.0918,1400.5,109.0918,1396.5,113.0918,1392.5,109.0918" style="stroke:#B38D22;stroke-width:1.0;"/><text fill="#000000" font-family="sans-serif" font-size="11" lengthAdjust="spacing" textLength="102" x="1405.5" y="115.6978">BufferedImage image</text><polygon fill="none" points="1396.5,120.1147,1400.5,124.1147,1396.5,128.1147,1392.5,124.1147" style="stroke:#B38D22;stroke-width:1.0;"/><text fill="#000000" font-family="sans-serif" font-size="11" lengthAdjust="spacing" textLength="41" x="1405.5" y="130.7207">int width</text><polygon fill="none" points="1396.5,135.1377,1400.5,139.1377,1396.5,143.1377,1392.5,139.1377" style="stroke:#B38D22;stroke-width:1.0;"/><text fill="#000000" font-family="sans-serif" font-size="11" lengthAdjust="spacing" textLength="43" x="1405.5" y="145.7437">int height</text><polygon fill="none" points="1396.5,150.1606,1400.5,154.1606,1396.5,158.1606,1392.5,154.1606" style="stroke:#B38D22;stroke-width:1.0;"/><text fill="#000000" font-family="sans-serif" font-size="11" lengthAdjust="spacing" textLength="73" x="1405.5" y="160.7666">boolean isValid</text><line style="stroke:#A80036;stroke-width:1.5;" x1="1386.5" x2="1738.5" y1="167.1836" y2="167.1836"/><ellipse cx="1396.5" cy="178.1836" fill="#84BE84" rx="3" ry="3" style="stroke:#038048;stroke-width:1.0;"/><text fill="#000000" font-family="sans-serif" font-size="11" lengthAdjust="spacing" textLength="328" x="1405.5" y="183.7896">FlyingObject(int locationX, int locationY, int speedX, int speedY):void</text><ellipse cx="1396.5" cy="193.2065" fill="#84BE84" rx="3" ry="3" style="stroke:#038048;stroke-width:1.0;"/><text fill="#000000" font-family="sans-serif" font-size="11" lengthAdjust="spacing" textLength="71" x="1405.5" y="198.8125">forward():void</text><ellipse cx="1396.5" cy="208.2295" fill="#84BE84" rx="3" ry="3" style="stroke:#038048;stroke-width:1.0;"/><text fill="#000000" font-family="sans-serif" font-size="11" lengthAdjust="spacing" textLength="196" x="1405.5" y="213.8354">crash(FlyingObject flyingObject):boolean</text><ellipse cx="1396.5" cy="223.2524" fill="#84BE84" rx="3" ry="3" style="stroke:#038048;stroke-width:1.0;"/><text fill="#000000" font-family="sans-serif" font-size="11" lengthAdjust="spacing" textLength="252" x="1405.5" y="228.8584">setLocation(double locationX, double locationY):void</text><ellipse cx="1396.5" cy="238.2754" fill="#84BE84" rx="3" ry="3" style="stroke:#038048;stroke-width:1.0;"/><text fill="#000000" font-family="sans-serif" font-size="11" lengthAdjust="spacing" textLength="85" x="1405.5" y="243.8813">getLocationX():int</text><ellipse cx="1396.5" cy="253.2983" fill="#84BE84" rx="3" ry="3" style="stroke:#038048;stroke-width:1.0;"/><text fill="#000000" font-family="sans-serif" font-size="11" lengthAdjust="spacing" textLength="86" x="1405.5" y="258.9043">getLocationY():int</text><ellipse cx="1396.5" cy="268.3213" fill="#84BE84" rx="3" ry="3" style="stroke:#038048;stroke-width:1.0;"/><text fill="#000000" font-family="sans-serif" font-size="11" lengthAdjust="spacing" textLength="76" x="1405.5" y="273.9272">getSpeedY():int</text><ellipse cx="1396.5" cy="283.3442" fill="#84BE84" rx="3" ry="3" style="stroke:#038048;stroke-width:1.0;"/><text fill="#000000" font-family="sans-serif" font-size="11" lengthAdjust="spacing" textLength="125" x="1405.5" y="288.9502">getImage():BufferedImage</text><ellipse cx="1396.5" cy="298.3672" fill="#84BE84" rx="3" ry="3" style="stroke:#038048;stroke-width:1.0;"/><text fill="#000000" font-family="sans-serif" font-size="11" lengthAdjust="spacing" textLength="64" x="1405.5" y="303.9731">getWidth():int</text><ellipse cx="1396.5" cy="313.3901" fill="#84BE84" rx="3" ry="3" style="stroke:#038048;stroke-width:1.0;"/><text fill="#000000" font-family="sans-serif" font-size="11" lengthAdjust="spacing" textLength="67" x="1405.5" y="318.9961">getHeight():int</text><ellipse cx="1396.5" cy="328.4131" fill="#84BE84" rx="3" ry="3" style="stroke:#038048;stroke-width:1.0;"/><text fill="#000000" font-family="sans-serif" font-size="11" lengthAdjust="spacing" textLength="88" x="1405.5" y="334.019">notValid():boolean</text><ellipse cx="1396.5" cy="343.436" fill="#84BE84" rx="3" ry="3" style="stroke:#038048;stroke-width:1.0;"/><text fill="#000000" font-family="sans-serif" font-size="11" lengthAdjust="spacing" textLength="63" x="1405.5" y="349.042">vanish():void</text><!--MD5=[339bda480455fa4c76194a95f0a782c0]
class AbstractAircraft--><rect codeLine="26" fill="#FEFECE" filter="url(#fuv4uoczchasa)" height="138.1377" id="AbstractAircraft" style="stroke:#A80036;stroke-width:1.5;" width="406" x="727.5" y="415"/><ellipse cx="884.75" cy="431" fill="#A9DCDF" rx="11" ry="11" style="stroke:#A80036;stroke-width:1.0;"/><path d="M885.8281,432 L882.7969,432 L882.2031,433.5938 Q882.1563,433.7656 882.1563,433.9063 Q882.1563,434.0938 882.2031,434.2031 Q882.25,434.3125 882.4688,434.3125 L883.0156,434.3125 L883.0156,436 L879.75,436 L879.75,434.3125 L880.3125,434.3125 Q880.5313,434.3125 880.6406,434.25 Q880.7656,434.1875 880.8125,434 L883.7813,424.3125 L885.4063,424.3125 L888.3125,433.8906 Q888.4063,434.125 888.5469,434.2188 Q888.6875,434.3125 888.875,434.3125 L889.4375,434.3125 L889.4375,436 L885.7813,436 L885.7813,434.3125 L886.3906,434.3125 Q886.5625,434.3125 886.5625,434.2969 Q886.5781,434.2813 886.5781,434.2188 Q886.5781,434.0469 886.5469,433.9531 L885.8281,432 Z M880.6094,435 L880.6094,435 Z M881.2813,435 L881.2813,435 Z M886,435 L886,435 Z M887.125,435 L887.125,435 Z M884.3281,425.9063 L884.4063,425.9063 L883.1875,430.3125 L885.5156,430.3125 L884.3281,425.9063 Z " fill="#000000"/><text fill="#000000" font-family="sans-serif" font-size="12" font-style="italic" lengthAdjust="spacing" textLength="83" x="905.25" y="436.5576">AbstractAircraft</text><line style="stroke:#A80036;stroke-width:1.5;" x1="728.5" x2="1132.5" y1="447" y2="447"/><polygon fill="none" points="738.5,453,742.5,457,738.5,461,734.5,457" style="stroke:#B38D22;stroke-width:1.0;"/><text fill="#000000" font-family="sans-serif" font-size="11" lengthAdjust="spacing" textLength="47" x="747.5" y="463.606">int maxHp</text><polygon fill="none" points="738.5,468.0229,742.5,472.0229,738.5,476.0229,734.5,472.0229" style="stroke:#B38D22;stroke-width:1.0;"/><text fill="#000000" font-family="sans-serif" font-size="11" lengthAdjust="spacing" textLength="26" x="747.5" y="478.6289">int hp</text><line style="stroke:#A80036;stroke-width:1.5;" x1="728.5" x2="1132.5" y1="485.0459" y2="485.0459"/><ellipse cx="738.5" cy="496.0459" fill="#84BE84" rx="3" ry="3" style="stroke:#038048;stroke-width:1.0;"/><text fill="#000000" font-family="sans-serif" font-size="11" lengthAdjust="spacing" textLength="380" x="747.5" y="501.6519">AbstractAircraft(int locationX, int locationY, int speedX, int speedY, int hp):void</text><ellipse cx="738.5" cy="511.0688" fill="#84BE84" rx="3" ry="3" style="stroke:#038048;stroke-width:1.0;"/><text fill="#000000" font-family="sans-serif" font-size="11" lengthAdjust="spacing" textLength="150" x="747.5" y="516.6748">decreaseHp(int decrease):void</text><ellipse cx="738.5" cy="526.0918" fill="#84BE84" rx="3" ry="3" style="stroke:#038048;stroke-width:1.0;"/><text fill="#000000" font-family="sans-serif" font-size="11" lengthAdjust="spacing" textLength="50" x="747.5" y="531.6978">getHp():int</text><ellipse cx="738.5" cy="541.1147" fill="#84BE84" rx="3" ry="3" style="stroke:#038048;stroke-width:1.0;"/><text fill="#000000" font-family="sans-serif" font-size="11" font-style="italic" lengthAdjust="spacing" textLength="96" x="747.5" y="546.7207">shoot():List&lt;Bullet&gt;</text><!--MD5=[c002910652d9d2680bbc6b90c0f60a23]
class AbstractBullet--><rect codeLine="35" fill="#FEFECE" filter="url(#fuv4uoczchasa)" height="108.0918" id="AbstractBullet" style="stroke:#A80036;stroke-width:1.5;" width="373" x="1376" y="430"/><ellipse cx="1520.25" cy="446" fill="#A9DCDF" rx="11" ry="11" style="stroke:#A80036;stroke-width:1.0;"/><path d="M1521.3281,447 L1518.2969,447 L1517.7031,448.5938 Q1517.6563,448.7656 1517.6563,448.9063 Q1517.6563,449.0938 1517.7031,449.2031 Q1517.75,449.3125 1517.9688,449.3125 L1518.5156,449.3125 L1518.5156,451 L1515.25,451 L1515.25,449.3125 L1515.8125,449.3125 Q1516.0313,449.3125 1516.1406,449.25 Q1516.2656,449.1875 1516.3125,449 L1519.2813,439.3125 L1520.9063,439.3125 L1523.8125,448.8906 Q1523.9063,449.125 1524.0469,449.2188 Q1524.1875,449.3125 1524.375,449.3125 L1524.9375,449.3125 L1524.9375,451 L1521.2813,451 L1521.2813,449.3125 L1521.8906,449.3125 Q1522.0625,449.3125 1522.0625,449.2969 Q1522.0781,449.2813 1522.0781,449.2188 Q1522.0781,449.0469 1522.0469,448.9531 L1521.3281,447 Z M1516.1094,450 L1516.1094,450 Z M1516.7813,450 L1516.7813,450 Z M1521.5,450 L1521.5,450 Z M1522.625,450 L1522.625,450 Z M1519.8281,440.9063 L1519.9063,440.9063 L1518.6875,445.3125 L1521.0156,445.3125 L1519.8281,440.9063 Z " fill="#000000"/><text fill="#000000" font-family="sans-serif" font-size="12" font-style="italic" lengthAdjust="spacing" textLength="76" x="1540.75" y="451.5576">AbstractBullet</text><line style="stroke:#A80036;stroke-width:1.5;" x1="1377" x2="1748" y1="462" y2="462"/><rect fill="none" height="6" style="stroke:#C82930;stroke-width:1.0;" width="6" x="1384" y="470"/><text fill="#000000" font-family="sans-serif" font-size="11" lengthAdjust="spacing" textLength="46" x="1396" y="478.606">int power</text><line style="stroke:#A80036;stroke-width:1.5;" x1="1377" x2="1748" y1="485.0229" y2="485.0229"/><ellipse cx="1387" cy="496.0229" fill="#84BE84" rx="3" ry="3" style="stroke:#038048;stroke-width:1.0;"/><text fill="#000000" font-family="sans-serif" font-size="11" lengthAdjust="spacing" textLength="347" x="1396" y="501.6289">Bullet(int locationX, int locationY, int speedX, int speedY, int power):void</text><ellipse cx="1387" cy="511.0459" fill="#84BE84" rx="3" ry="3" style="stroke:#038048;stroke-width:1.0;"/><text fill="#000000" font-family="sans-serif" font-size="11" lengthAdjust="spacing" textLength="71" x="1396" y="516.6519">forward():void</text><ellipse cx="1387" cy="526.0688" fill="#84BE84" rx="3" ry="3" style="stroke:#038048;stroke-width:1.0;"/><text fill="#000000" font-family="sans-serif" font-size="11" lengthAdjust="spacing" textLength="69" x="1396" y="531.6748">getPower():int</text><!--MD5=[7014b4af28d8a39d12847c6acd825e94]
class HeroAircraft--><rect codeLine="51" fill="#FEFECE" filter="url(#fuv4uoczchasa)" height="138.1377" id="HeroAircraft" style="stroke:#A80036;stroke-width:1.5;" width="387" x="7" y="613"/><ellipse cx="164.25" cy="629" fill="#ADD1B2" rx="11" ry="11" style="stroke:#A80036;stroke-width:1.0;"/><path d="M163.9375,635 Q162,635 160.875,633.5781 Q159.75,632.1406 159.75,629.1875 Q159.75,626.6875 160.9375,625 Q162.125,623.3125 164.1875,623.3125 Q164.6719,623.3125 165.1719,623.4219 Q165.5781,623.5625 165.8281,623.5625 Q166.0313,623.5625 166.1094,623.5469 Q166.2031,623.5156 166.7344,622.8438 L167.4688,627.0781 L166.5,627.6719 Q166,626.125 165.4219,625.5625 Q164.8594,625 163.9531,625 Q162.7969,625 162.1094,626.1875 Q161.4375,627.3594 161.4375,629.1875 Q161.4375,631.1875 162.0156,632.25 Q162.5938,633.3125 163.8906,633.3125 Q164.8125,633.3125 165.4531,632.75 Q166.1094,632.1719 166.4531,630.7813 L167.4844,631.2969 Q167.0938,633.0469 166.1563,634.0313 Q165.2188,635 163.9375,635 Z " fill="#000000"/><text fill="#000000" font-family="sans-serif" font-size="12" lengthAdjust="spacing" textLength="64" x="184.75" y="634.5576">HeroAircraft</text><line style="stroke:#A80036;stroke-width:1.5;" x1="8" x2="393" y1="645" y2="645"/><rect fill="none" height="6" style="stroke:#C82930;stroke-width:1.0;" width="6" x="15" y="653"/><text fill="#000000" font-family="sans-serif" font-size="11" lengthAdjust="spacing" textLength="62" x="27" y="661.606">int shootNum</text><rect fill="none" height="6" style="stroke:#C82930;stroke-width:1.0;" width="6" x="15" y="668.0229"/><text fill="#000000" font-family="sans-serif" font-size="11" lengthAdjust="spacing" textLength="46" x="27" y="676.6289">int power</text><rect fill="none" height="6" style="stroke:#C82930;stroke-width:1.0;" width="6" x="15" y="683.0459"/><text fill="#000000" font-family="sans-serif" font-size="11" lengthAdjust="spacing" textLength="55" x="27" y="691.6519">int direction</text><line style="stroke:#A80036;stroke-width:1.5;" x1="8" x2="393" y1="698.0688" y2="698.0688"/><ellipse cx="18" cy="709.0688" fill="#84BE84" rx="3" ry="3" style="stroke:#038048;stroke-width:1.0;"/><text fill="#000000" font-family="sans-serif" font-size="11" lengthAdjust="spacing" textLength="361" x="27" y="714.6748">HeroAircraft(int locationX, int locationY, int speedX, int speedY, int hp):void</text><ellipse cx="18" cy="724.0918" fill="#84BE84" rx="3" ry="3" style="stroke:#038048;stroke-width:1.0;"/><text fill="#000000" font-family="sans-serif" font-size="11" lengthAdjust="spacing" textLength="71" x="27" y="729.6978">forward():void</text><ellipse cx="18" cy="739.1147" fill="#84BE84" rx="3" ry="3" style="stroke:#038048;stroke-width:1.0;"/><text fill="#000000" font-family="sans-serif" font-size="11" lengthAdjust="spacing" textLength="93" x="27" y="744.7207">shoot():List&lt;Bullet&gt;</text><!--MD5=[828632568bdfcaf2795f5a81f38bfbd5]
class MobEnemy--><rect codeLine="60" fill="#FEFECE" filter="url(#fuv4uoczchasa)" height="93.0688" id="MobEnemy" style="stroke:#A80036;stroke-width:1.5;" width="379" x="429" y="635.5"/><ellipse cx="583.75" cy="651.5" fill="#ADD1B2" rx="11" ry="11" style="stroke:#A80036;stroke-width:1.0;"/><path d="M583.4375,657.5 Q581.5,657.5 580.375,656.0781 Q579.25,654.6406 579.25,651.6875 Q579.25,649.1875 580.4375,647.5 Q581.625,645.8125 583.6875,645.8125 Q584.1719,645.8125 584.6719,645.9219 Q585.0781,646.0625 585.3281,646.0625 Q585.5313,646.0625 585.6094,646.0469 Q585.7031,646.0156 586.2344,645.3438 L586.9688,649.5781 L586,650.1719 Q585.5,648.625 584.9219,648.0625 Q584.3594,647.5 583.4531,647.5 Q582.2969,647.5 581.6094,648.6875 Q580.9375,649.8594 580.9375,651.6875 Q580.9375,653.6875 581.5156,654.75 Q582.0938,655.8125 583.3906,655.8125 Q584.3125,655.8125 584.9531,655.25 Q585.6094,654.6719 585.9531,653.2813 L586.9844,653.7969 Q586.5938,655.5469 585.6563,656.5313 Q584.7188,657.5 583.4375,657.5 Z " fill="#000000"/><text fill="#000000" font-family="sans-serif" font-size="12" lengthAdjust="spacing" textLength="61" x="604.25" y="657.0576">MobEnemy</text><line style="stroke:#A80036;stroke-width:1.5;" x1="430" x2="807" y1="667.5" y2="667.5"/><line style="stroke:#A80036;stroke-width:1.5;" x1="430" x2="807" y1="675.5" y2="675.5"/><ellipse cx="440" cy="686.5" fill="#84BE84" rx="3" ry="3" style="stroke:#038048;stroke-width:1.0;"/><text fill="#000000" font-family="sans-serif" font-size="11" lengthAdjust="spacing" textLength="353" x="449" y="692.106">MobEnemy(int locationX, int locationY, int speedX, int speedY, int hp):void</text><ellipse cx="440" cy="701.5229" fill="#84BE84" rx="3" ry="3" style="stroke:#038048;stroke-width:1.0;"/><text fill="#000000" font-family="sans-serif" font-size="11" lengthAdjust="spacing" textLength="71" x="449" y="707.1289">forward():void</text><ellipse cx="440" cy="716.5459" fill="#84BE84" rx="3" ry="3" style="stroke:#038048;stroke-width:1.0;"/><text fill="#000000" font-family="sans-serif" font-size="11" lengthAdjust="spacing" textLength="93" x="449" y="722.1519">shoot():List&lt;Bullet&gt;</text><!--MD5=[790370cd8ab4e36a207530266463848e]
class HeroBullet--><rect codeLine="73" fill="#FEFECE" filter="url(#fuv4uoczchasa)" height="63.0229" id="HeroBullet" style="stroke:#A80036;stroke-width:1.5;" width="396" x="1260.5" y="650.5"/><ellipse cx="1425.25" cy="666.5" fill="#ADD1B2" rx="11" ry="11" style="stroke:#A80036;stroke-width:1.0;"/><path d="M1424.9375,672.5 Q1423,672.5 1421.875,671.0781 Q1420.75,669.6406 1420.75,666.6875 Q1420.75,664.1875 1421.9375,662.5 Q1423.125,660.8125 1425.1875,660.8125 Q1425.6719,660.8125 1426.1719,660.9219 Q1426.5781,661.0625 1426.8281,661.0625 Q1427.0313,661.0625 1427.1094,661.0469 Q1427.2031,661.0156 1427.7344,660.3438 L1428.4688,664.5781 L1427.5,665.1719 Q1427,663.625 1426.4219,663.0625 Q1425.8594,662.5 1424.9531,662.5 Q1423.7969,662.5 1423.1094,663.6875 Q1422.4375,664.8594 1422.4375,666.6875 Q1422.4375,668.6875 1423.0156,669.75 Q1423.5938,670.8125 1424.8906,670.8125 Q1425.8125,670.8125 1426.4531,670.25 Q1427.1094,669.6719 1427.4531,668.2813 L1428.4844,668.7969 Q1428.0938,670.5469 1427.1563,671.5313 Q1426.2188,672.5 1424.9375,672.5 Z " fill="#000000"/><text fill="#000000" font-family="sans-serif" font-size="12" lengthAdjust="spacing" textLength="58" x="1445.75" y="672.0576">HeroBullet</text><line style="stroke:#A80036;stroke-width:1.5;" x1="1261.5" x2="1655.5" y1="682.5" y2="682.5"/><line style="stroke:#A80036;stroke-width:1.5;" x1="1261.5" x2="1655.5" y1="690.5" y2="690.5"/><ellipse cx="1271.5" cy="701.5" fill="#84BE84" rx="3" ry="3" style="stroke:#038048;stroke-width:1.0;"/><text fill="#000000" font-family="sans-serif" font-size="11" lengthAdjust="spacing" textLength="370" x="1280.5" y="707.106">HeroBullet(int locationX, int locationY, int speedX, int speedY, int power):void</text><!--MD5=[7c6b67d6b09db62be011154945054cfc]
class EnemyBullet--><rect codeLine="77" fill="#FEFECE" filter="url(#fuv4uoczchasa)" height="63.0229" id="EnemyBullet" style="stroke:#A80036;stroke-width:1.5;" width="405" x="1692" y="650.5"/><ellipse cx="1855.75" cy="666.5" fill="#ADD1B2" rx="11" ry="11" style="stroke:#A80036;stroke-width:1.0;"/><path d="M1855.4375,672.5 Q1853.5,672.5 1852.375,671.0781 Q1851.25,669.6406 1851.25,666.6875 Q1851.25,664.1875 1852.4375,662.5 Q1853.625,660.8125 1855.6875,660.8125 Q1856.1719,660.8125 1856.6719,660.9219 Q1857.0781,661.0625 1857.3281,661.0625 Q1857.5313,661.0625 1857.6094,661.0469 Q1857.7031,661.0156 1858.2344,660.3438 L1858.9688,664.5781 L1858,665.1719 Q1857.5,663.625 1856.9219,663.0625 Q1856.3594,662.5 1855.4531,662.5 Q1854.2969,662.5 1853.6094,663.6875 Q1852.9375,664.8594 1852.9375,666.6875 Q1852.9375,668.6875 1853.5156,669.75 Q1854.0938,670.8125 1855.3906,670.8125 Q1856.3125,670.8125 1856.9531,670.25 Q1857.6094,669.6719 1857.9531,668.2813 L1858.9844,668.7969 Q1858.5938,670.5469 1857.6563,671.5313 Q1856.7188,672.5 1855.4375,672.5 Z " fill="#000000"/><text fill="#000000" font-family="sans-serif" font-size="12" lengthAdjust="spacing" textLength="69" x="1876.25" y="672.0576">EnemyBullet</text><line style="stroke:#A80036;stroke-width:1.5;" x1="1693" x2="2096" y1="682.5" y2="682.5"/><line style="stroke:#A80036;stroke-width:1.5;" x1="1693" x2="2096" y1="690.5" y2="690.5"/><ellipse cx="1703" cy="701.5" fill="#84BE84" rx="3" ry="3" style="stroke:#038048;stroke-width:1.0;"/><text fill="#000000" font-family="sans-serif" font-size="11" lengthAdjust="spacing" textLength="379" x="1712" y="707.106">EnemyBullet(int locationX, int locationY, int speedX, int speedY, int power):void</text><!--MD5=[dc0cf547c6cdbd0be1641cc63ad1e88f]
class ELiteEnemy--><rect codeLine="66" fill="#FEFECE" filter="url(#fuv4uoczchasa)" height="93.0688" id="ELiteEnemy" style="stroke:#A80036;stroke-width:1.5;" width="382" x="843.5" y="635.5"/><ellipse cx="997.25" cy="651.5" fill="#ADD1B2" rx="11" ry="11" style="stroke:#A80036;stroke-width:1.0;"/><path d="M996.9375,657.5 Q995,657.5 993.875,656.0781 Q992.75,654.6406 992.75,651.6875 Q992.75,649.1875 993.9375,647.5 Q995.125,645.8125 997.1875,645.8125 Q997.6719,645.8125 998.1719,645.9219 Q998.5781,646.0625 998.8281,646.0625 Q999.0313,646.0625 999.1094,646.0469 Q999.2031,646.0156 999.7344,645.3438 L1000.4688,649.5781 L999.5,650.1719 Q999,648.625 998.4219,648.0625 Q997.8594,647.5 996.9531,647.5 Q995.7969,647.5 995.1094,648.6875 Q994.4375,649.8594 994.4375,651.6875 Q994.4375,653.6875 995.0156,654.75 Q995.5938,655.8125 996.8906,655.8125 Q997.8125,655.8125 998.4531,655.25 Q999.1094,654.6719 999.4531,653.2813 L1000.4844,653.7969 Q1000.0938,655.5469 999.1563,656.5313 Q998.2188,657.5 996.9375,657.5 Z " fill="#000000"/><text fill="#000000" font-family="sans-serif" font-size="12" lengthAdjust="spacing" textLength="66" x="1017.75" y="657.0576">ELiteEnemy</text><line style="stroke:#A80036;stroke-width:1.5;" x1="844.5" x2="1224.5" y1="667.5" y2="667.5"/><line style="stroke:#A80036;stroke-width:1.5;" x1="844.5" x2="1224.5" y1="675.5" y2="675.5"/><ellipse cx="854.5" cy="686.5" fill="#84BE84" rx="3" ry="3" style="stroke:#038048;stroke-width:1.0;"/><text fill="#000000" font-family="sans-serif" font-size="11" lengthAdjust="spacing" textLength="356" x="863.5" y="692.106">ELiteEnemy(int locationX, int locationY, int speedX, int speedY, int hp):void</text><ellipse cx="854.5" cy="701.5229" fill="#84BE84" rx="3" ry="3" style="stroke:#038048;stroke-width:1.0;"/><text fill="#000000" font-family="sans-serif" font-size="11" lengthAdjust="spacing" textLength="71" x="863.5" y="707.1289">forward():void</text><ellipse cx="854.5" cy="716.5459" fill="#84BE84" rx="3" ry="3" style="stroke:#038048;stroke-width:1.0;"/><text fill="#000000" font-family="sans-serif" font-size="11" lengthAdjust="spacing" textLength="93" x="863.5" y="722.1519">shoot():List&lt;Bullet&gt;</text><!--MD5=[e8c240fbd41a6fb11f74e856f49b7df3]
class AbstractProp--><rect codeLine="81" fill="#FEFECE" filter="url(#fuv4uoczchasa)" height="108.0918" id="AbstractProp" style="stroke:#A80036;stroke-width:1.5;" width="359" x="2370" y="430"/><ellipse cx="2509.75" cy="446" fill="#A9DCDF" rx="11" ry="11" style="stroke:#A80036;stroke-width:1.0;"/><path d="M2510.8281,447 L2507.7969,447 L2507.2031,448.5938 Q2507.1563,448.7656 2507.1563,448.9063 Q2507.1563,449.0938 2507.2031,449.2031 Q2507.25,449.3125 2507.4688,449.3125 L2508.0156,449.3125 L2508.0156,451 L2504.75,451 L2504.75,449.3125 L2505.3125,449.3125 Q2505.5313,449.3125 2505.6406,449.25 Q2505.7656,449.1875 2505.8125,449 L2508.7813,439.3125 L2510.4063,439.3125 L2513.3125,448.8906 Q2513.4063,449.125 2513.5469,449.2188 Q2513.6875,449.3125 2513.875,449.3125 L2514.4375,449.3125 L2514.4375,451 L2510.7813,451 L2510.7813,449.3125 L2511.3906,449.3125 Q2511.5625,449.3125 2511.5625,449.2969 Q2511.5781,449.2813 2511.5781,449.2188 Q2511.5781,449.0469 2511.5469,448.9531 L2510.8281,447 Z M2505.6094,450 L2505.6094,450 Z M2506.2813,450 L2506.2813,450 Z M2511,450 L2511,450 Z M2512.125,450 L2512.125,450 Z M2509.3281,440.9063 L2509.4063,440.9063 L2508.1875,445.3125 L2510.5156,445.3125 L2509.3281,440.9063 Z " fill="#000000"/><text fill="#000000" font-family="sans-serif" font-size="12" font-style="italic" lengthAdjust="spacing" textLength="71" x="2530.25" y="451.5576">AbstractProp</text><line style="stroke:#A80036;stroke-width:1.5;" x1="2371" x2="2728" y1="462" y2="462"/><rect fill="none" height="6" style="stroke:#C82930;stroke-width:1.0;" width="6" x="2378" y="470"/><text fill="#000000" font-family="sans-serif" font-size="11" lengthAdjust="spacing" textLength="46" x="2390" y="478.606">int power</text><line style="stroke:#A80036;stroke-width:1.5;" x1="2371" x2="2728" y1="485.0229" y2="485.0229"/><ellipse cx="2381" cy="496.0229" fill="#84BE84" rx="3" ry="3" style="stroke:#038048;stroke-width:1.0;"/><text fill="#000000" font-family="sans-serif" font-size="11" lengthAdjust="spacing" textLength="333" x="2390" y="501.6289">AbstractProp(int locationX, int locationY, int speedX, int speedY):void</text><ellipse cx="2381" cy="511.0459" fill="#84BE84" rx="3" ry="3" style="stroke:#038048;stroke-width:1.0;"/><text fill="#000000" font-family="sans-serif" font-size="11" lengthAdjust="spacing" textLength="71" x="2390" y="516.6519">forward():void</text><ellipse cx="2381" cy="526.0688" fill="#84BE84" rx="3" ry="3" style="stroke:#038048;stroke-width:1.0;"/><text fill="#000000" font-family="sans-serif" font-size="11" font-style="italic" lengthAdjust="spacing" textLength="291" x="2390" y="531.6748">handleAircrafts(List&lt;AbstractAircraft&gt; enemyAircrafts):void</text><!--MD5=[895a1e3854c6c9e20527effed4ae7c5f]
class BloodProp--><rect codeLine="89" fill="#FEFECE" filter="url(#fuv4uoczchasa)" height="93.0688" id="BloodProp" style="stroke:#A80036;stroke-width:1.5;" width="419" x="2132" y="635.5"/><ellipse cx="2308.25" cy="651.5" fill="#ADD1B2" rx="11" ry="11" style="stroke:#A80036;stroke-width:1.0;"/><path d="M2307.9375,657.5 Q2306,657.5 2304.875,656.0781 Q2303.75,654.6406 2303.75,651.6875 Q2303.75,649.1875 2304.9375,647.5 Q2306.125,645.8125 2308.1875,645.8125 Q2308.6719,645.8125 2309.1719,645.9219 Q2309.5781,646.0625 2309.8281,646.0625 Q2310.0313,646.0625 2310.1094,646.0469 Q2310.2031,646.0156 2310.7344,645.3438 L2311.4688,649.5781 L2310.5,650.1719 Q2310,648.625 2309.4219,648.0625 Q2308.8594,647.5 2307.9531,647.5 Q2306.7969,647.5 2306.1094,648.6875 Q2305.4375,649.8594 2305.4375,651.6875 Q2305.4375,653.6875 2306.0156,654.75 Q2306.5938,655.8125 2307.8906,655.8125 Q2308.8125,655.8125 2309.4531,655.25 Q2310.1094,654.6719 2310.4531,653.2813 L2311.4844,653.7969 Q2311.0938,655.5469 2310.1563,656.5313 Q2309.2188,657.5 2307.9375,657.5 Z " fill="#000000"/><text fill="#000000" font-family="sans-serif" font-size="12" lengthAdjust="spacing" textLength="58" x="2328.75" y="657.0576">BloodProp</text><line style="stroke:#A80036;stroke-width:1.5;" x1="2133" x2="2550" y1="667.5" y2="667.5"/><polygon fill="none" points="2143,673.5,2147,677.5,2143,681.5,2139,677.5" style="stroke:#B38D22;stroke-width:1.0;"/><text fill="#000000" font-family="sans-serif" font-size="11" lengthAdjust="spacing" textLength="69" x="2152" y="684.106">int increaseHp</text><line style="stroke:#A80036;stroke-width:1.5;" x1="2133" x2="2550" y1="690.5229" y2="690.5229"/><ellipse cx="2143" cy="701.5229" fill="#84BE84" rx="3" ry="3" style="stroke:#038048;stroke-width:1.0;"/><text fill="#000000" font-family="sans-serif" font-size="11" lengthAdjust="spacing" textLength="393" x="2152" y="707.1289">BloodProp(int locationX, int locationY, int speedX, int speedY, int increaseHp):void</text><ellipse cx="2143" cy="716.5459" fill="#84BE84" rx="3" ry="3" style="stroke:#038048;stroke-width:1.0;"/><text fill="#000000" font-family="sans-serif" font-size="11" lengthAdjust="spacing" textLength="292" x="2152" y="722.1519">handleAircrafts(List&lt;AbstractAircraft&gt; enemyAircrafts):void</text><!--MD5=[5a442bba13b4fb8dfa742f8796eef76f]
class BombProp--><rect codeLine="96" fill="#FEFECE" filter="url(#fuv4uoczchasa)" height="78.0459" id="BombProp" style="stroke:#A80036;stroke-width:1.5;" width="344" x="2586.5" y="643"/><ellipse cx="2724.75" cy="659" fill="#ADD1B2" rx="11" ry="11" style="stroke:#A80036;stroke-width:1.0;"/><path d="M2724.4375,665 Q2722.5,665 2721.375,663.5781 Q2720.25,662.1406 2720.25,659.1875 Q2720.25,656.6875 2721.4375,655 Q2722.625,653.3125 2724.6875,653.3125 Q2725.1719,653.3125 2725.6719,653.4219 Q2726.0781,653.5625 2726.3281,653.5625 Q2726.5313,653.5625 2726.6094,653.5469 Q2726.7031,653.5156 2727.2344,652.8438 L2727.9688,657.0781 L2727,657.6719 Q2726.5,656.125 2725.9219,655.5625 Q2725.3594,655 2724.4531,655 Q2723.2969,655 2722.6094,656.1875 Q2721.9375,657.3594 2721.9375,659.1875 Q2721.9375,661.1875 2722.5156,662.25 Q2723.0938,663.3125 2724.3906,663.3125 Q2725.3125,663.3125 2725.9531,662.75 Q2726.6094,662.1719 2726.9531,660.7813 L2727.9844,661.2969 Q2727.5938,663.0469 2726.6563,664.0313 Q2725.7188,665 2724.4375,665 Z " fill="#000000"/><text fill="#000000" font-family="sans-serif" font-size="12" lengthAdjust="spacing" textLength="59" x="2745.25" y="664.5576">BombProp</text><line style="stroke:#A80036;stroke-width:1.5;" x1="2587.5" x2="2929.5" y1="675" y2="675"/><line style="stroke:#A80036;stroke-width:1.5;" x1="2587.5" x2="2929.5" y1="683" y2="683"/><ellipse cx="2597.5" cy="694" fill="#84BE84" rx="3" ry="3" style="stroke:#038048;stroke-width:1.0;"/><text fill="#000000" font-family="sans-serif" font-size="11" lengthAdjust="spacing" textLength="318" x="2606.5" y="699.606">BombProp(int locationX, int locationY, int speedX, int speedY):void</text><ellipse cx="2597.5" cy="709.0229" fill="#84BE84" rx="3" ry="3" style="stroke:#038048;stroke-width:1.0;"/><text fill="#000000" font-family="sans-serif" font-size="11" lengthAdjust="spacing" textLength="292" x="2606.5" y="714.6289">handleAircrafts(List&lt;AbstractAircraft&gt; enemyAircrafts):void</text><!--MD5=[8eee889e29be57b2a486966ef5fd98cf]
class BulletProp--><rect codeLine="102" fill="#FEFECE" filter="url(#fuv4uoczchasa)" height="78.0459" id="BulletProp" style="stroke:#A80036;stroke-width:1.5;" width="343" x="2966" y="643"/><ellipse cx="3104.75" cy="659" fill="#ADD1B2" rx="11" ry="11" style="stroke:#A80036;stroke-width:1.0;"/><path d="M3104.4375,665 Q3102.5,665 3101.375,663.5781 Q3100.25,662.1406 3100.25,659.1875 Q3100.25,656.6875 3101.4375,655 Q3102.625,653.3125 3104.6875,653.3125 Q3105.1719,653.3125 3105.6719,653.4219 Q3106.0781,653.5625 3106.3281,653.5625 Q3106.5313,653.5625 3106.6094,653.5469 Q3106.7031,653.5156 3107.2344,652.8438 L3107.9688,657.0781 L3107,657.6719 Q3106.5,656.125 3105.9219,655.5625 Q3105.3594,655 3104.4531,655 Q3103.2969,655 3102.6094,656.1875 Q3101.9375,657.3594 3101.9375,659.1875 Q3101.9375,661.1875 3102.5156,662.25 Q3103.0938,663.3125 3104.3906,663.3125 Q3105.3125,663.3125 3105.9531,662.75 Q3106.6094,662.1719 3106.9531,660.7813 L3107.9844,661.2969 Q3107.5938,663.0469 3106.6563,664.0313 Q3105.7188,665 3104.4375,665 Z " fill="#000000"/><text fill="#000000" font-family="sans-serif" font-size="12" lengthAdjust="spacing" textLength="57" x="3125.25" y="664.5576">BulletProp</text><line style="stroke:#A80036;stroke-width:1.5;" x1="2967" x2="3308" y1="675" y2="675"/><line style="stroke:#A80036;stroke-width:1.5;" x1="2967" x2="3308" y1="683" y2="683"/><ellipse cx="2977" cy="694" fill="#84BE84" rx="3" ry="3" style="stroke:#038048;stroke-width:1.0;"/><text fill="#000000" font-family="sans-serif" font-size="11" lengthAdjust="spacing" textLength="317" x="2986" y="699.606">BulletProp(int locationX, int locationY, int speedX, int speedY):void</text><ellipse cx="2977" cy="709.0229" fill="#84BE84" rx="3" ry="3" style="stroke:#038048;stroke-width:1.0;"/><text fill="#000000" font-family="sans-serif" font-size="11" lengthAdjust="spacing" textLength="292" x="2986" y="714.6289">handleAircrafts(List&lt;AbstractAircraft&gt; enemyAircrafts):void</text><!--MD5=[491ba44a9b5ca2a00521b14129fb6105]
reverse link FlyingObject to AbstractAircraft--><path codeLine="42" d="M1367.07,275.08 C1272.16,320.28 1160.18,373.61 1073.4,414.94 " fill="none" id="FlyingObject-backto-AbstractAircraft" style="stroke:#A80036;stroke-width:1.0;"/><polygon fill="none" points="1364.13,268.73,1385.19,266.45,1370.15,281.37,1364.13,268.73" style="stroke:#A80036;stroke-width:1.0;"/><!--MD5=[4f843766925879664065d64d0c7a7f9c]
reverse link FlyingObject to AbstractBullet--><path codeLine="43" d="M1562.5,375.39 C1562.5,395.13 1562.5,413.8 1562.5,429.87 " fill="none" id="FlyingObject-backto-AbstractBullet" style="stroke:#A80036;stroke-width:1.0;"/><polygon fill="none" points="1555.5,375.35,1562.5,355.35,1569.5,375.35,1555.5,375.35" style="stroke:#A80036;stroke-width:1.0;"/><!--MD5=[660f2edc1326629bf3ae60ebb768f8f8]
reverse link AbstractAircraft to HeroAircraft--><path codeLine="45" d="M707.52,536.37 C615.48,558.52 507.97,585.59 411.5,613 C405.76,614.63 399.94,616.31 394.08,618.03 " fill="none" id="AbstractAircraft-backto-HeroAircraft" style="stroke:#A80036;stroke-width:1.0;"/><polygon fill="none" points="706.13,529.51,727.22,531.65,709.4,543.12,706.13,529.51" style="stroke:#A80036;stroke-width:1.0;"/><!--MD5=[13428c41f4b69a0c9f28d74362003b06]
reverse link AbstractAircraft to MobEnemy--><path codeLine="46" d="M805.27,563.67 C766.56,587.99 725.21,613.97 691.28,635.28 " fill="none" id="AbstractAircraft-backto-MobEnemy" style="stroke:#A80036;stroke-width:1.0;"/><polygon fill="none" points="801.59,557.71,822.25,553,809.04,569.57,801.59,557.71" style="stroke:#A80036;stroke-width:1.0;"/><!--MD5=[4201e703a4084c3f3a844fcd805b37bb]
reverse link AbstractBullet to HeroBullet--><path codeLine="48" d="M1524.83,555.99 C1507.65,588.37 1488.2,625.02 1474.83,650.22 " fill="none" id="AbstractBullet-backto-HeroBullet" style="stroke:#A80036;stroke-width:1.0;"/><polygon fill="none" points="1518.8,552.43,1534.36,538.04,1531.17,558.99,1518.8,552.43" style="stroke:#A80036;stroke-width:1.0;"/><!--MD5=[eb28bed004b4de52ff887995df5c8829]
reverse link AbstractBullet to EnemyBullet--><path codeLine="49" d="M1669.89,548.4 C1727.66,582.51 1796.31,623.03 1842.37,650.22 " fill="none" id="AbstractBullet-backto-EnemyBullet" style="stroke:#A80036;stroke-width:1.0;"/><polygon fill="none" points="1666.01,554.24,1652.34,538.04,1673.13,542.18,1666.01,554.24" style="stroke:#A80036;stroke-width:1.0;"/><!--MD5=[cfa42fbba4eefb9d8f9789341ce0aaef]
reverse link AbstractAircraft to ELiteEnemy--><path codeLine="71" d="M976.08,570.91 C987.84,593.07 1000.05,616.07 1010.24,635.28 " fill="none" id="AbstractAircraft-backto-ELiteEnemy" style="stroke:#A80036;stroke-width:1.0;"/><polygon fill="none" points="969.77,573.95,966.58,553,982.14,567.39,969.77,573.95" style="stroke:#A80036;stroke-width:1.0;"/><!--MD5=[515e8f729ed7434a035e46ef0a90c58e]
reverse link FlyingObject to AbstractProp--><path codeLine="87" d="M1758.86,241.88 C1938.91,296.79 2203.02,377.34 2375.61,429.97 " fill="none" id="FlyingObject-backto-AbstractProp" style="stroke:#A80036;stroke-width:1.0;"/><polygon fill="none" points="1756.61,248.52,1739.53,235.99,1760.7,235.13,1756.61,248.52" style="stroke:#A80036;stroke-width:1.0;"/><!--MD5=[5c2ec5d1656fc4ccc047ed13f339ea07]
reverse link AbstractProp to BloodProp--><path codeLine="94" d="M2478.39,552 C2449.28,579.44 2416.33,610.48 2390.06,635.24 " fill="none" id="AbstractProp-backto-BloodProp" style="stroke:#A80036;stroke-width:1.0;"/><polygon fill="none" points="2473.86,546.66,2493.21,538.04,2483.46,556.85,2473.86,546.66" style="stroke:#A80036;stroke-width:1.0;"/><!--MD5=[914253a6762d1fc65d14923d262667de]
reverse link AbstractProp to BombProp--><path codeLine="100" d="M2621,552.06 C2653.32,582.36 2690.33,617.07 2717.8,642.83 " fill="none" id="AbstractProp-backto-BombProp" style="stroke:#A80036;stroke-width:1.0;"/><polygon fill="none" points="2615.86,556.83,2606.06,538.04,2625.44,546.62,2615.86,556.83" style="stroke:#A80036;stroke-width:1.0;"/><!--MD5=[7c1f1066d08d21bd18ca37217a779361]
reverse link AbstractProp to BulletProp--><path codeLine="106" d="M2738.75,544.22 C2805.23,565.42 2880.33,589.81 2948.5,613 C2976.23,622.43 3006.11,633 3033.75,642.93 " fill="none" id="AbstractProp-backto-BulletProp" style="stroke:#A80036;stroke-width:1.0;"/><polygon fill="none" points="2736.26,550.77,2719.32,538.04,2740.51,537.43,2736.26,550.77" style="stroke:#A80036;stroke-width:1.0;"/><!--MD5=[2e9e372a74af29173c1d41745175eea9]
@startuml
'https://plantuml.com/class-diagram

abstract class FlyingObject {
    # int locationX
    # int locationY
    # int speedX
    # int speedY
    # BufferedImage image
    # int width
    # int height
    # boolean isValid

    + FlyingObject(int locationX, int locationY, int speedX, int speedY):void
    + forward():void
    + crash(FlyingObject flyingObject):boolean
    + setLocation(double locationX, double locationY):void
    + getLocationX():int
    + getLocationY():int
    + getSpeedY():int
    + getImage():BufferedImage
    + getWidth():int
    + getHeight():int
    + notValid():boolean
    + vanish():void
}
abstract class AbstractAircraft {
	# int maxHp
    # int hp
    + AbstractAircraft(int locationX, int locationY, int speedX, int speedY, int hp):void
    + decreaseHp(int decrease):void
    + getHp():int
    + {abstract} shoot():List<Bullet>
 }

abstract class AbstractBullet {
    - int power
    + Bullet(int locationX, int locationY, int speedX, int speedY, int power):void
    + forward():void
	+ getPower():int
}

FlyingObject <|- - AbstractAircraft
FlyingObject <|- - AbstractBullet

AbstractAircraft <|- - HeroAircraft
AbstractAircraft <|- - MobEnemy

AbstractBullet <|- - HeroBullet
AbstractBullet <|- - EnemyBullet

class HeroAircraft {
    - int shootNum
    - int power
    - int direction
    + HeroAircraft(int locationX, int locationY, int speedX, int speedY, int hp):void
    + forward():void
    + shoot():List<Bullet>
}

class MobEnemy {
    + MobEnemy(int locationX, int locationY, int speedX, int speedY, int hp):void
    + forward():void
    + shoot():List<Bullet>
}

class ELiteEnemy {
    + ELiteEnemy(int locationX, int locationY, int speedX, int speedY, int hp):void
    + forward():void
    + shoot():List<Bullet>
}
AbstractAircraft <|- - ELiteEnemy

class HeroBullet {
    + HeroBullet(int locationX, int locationY, int speedX, int speedY, int power):void
}

class EnemyBullet {
    + EnemyBullet(int locationX, int locationY, int speedX, int speedY, int power):void
}

abstract class AbstractProp {
    - int power
    + AbstractProp(int locationX, int locationY, int speedX, int speedY):void
    + forward():void
	+ {abstract} handleAircrafts(List<AbstractAircraft> enemyAircrafts):void
}
FlyingObject <|- - AbstractProp

class BloodProp {
    # int increaseHp
    + BloodProp(int locationX, int locationY, int speedX, int speedY, int increaseHp):void
    + handleAircrafts(List<AbstractAircraft> enemyAircrafts):void
}
AbstractProp <|- - BloodProp

class BombProp {
    + BombProp(int locationX, int locationY, int speedX, int speedY):void
    + handleAircrafts(List<AbstractAircraft> enemyAircrafts):void
}
AbstractProp <|- - BombProp

class BulletProp {
    + BulletProp(int locationX, int locationY, int speedX, int speedY):void
    + handleAircrafts(List<AbstractAircraft> enemyAircrafts):void
}
AbstractProp <|- - BulletProp

@enduml

@startuml

abstract class FlyingObject {
    # int locationX
    # int locationY
    # int speedX
    # int speedY
    # BufferedImage image
    # int width
    # int height
    # boolean isValid

    + FlyingObject(int locationX, int locationY, int speedX, int speedY):void
    + forward():void
    + crash(FlyingObject flyingObject):boolean
    + setLocation(double locationX, double locationY):void
    + getLocationX():int
    + getLocationY():int
    + getSpeedY():int
    + getImage():BufferedImage
    + getWidth():int
    + getHeight():int
    + notValid():boolean
    + vanish():void
}
abstract class AbstractAircraft {
	# int maxHp
    # int hp
    + AbstractAircraft(int locationX, int locationY, int speedX, int speedY, int hp):void
    + decreaseHp(int decrease):void
    + getHp():int
    + {abstract} shoot():List<Bullet>
 }

abstract class AbstractBullet {
    - int power
    + Bullet(int locationX, int locationY, int speedX, int speedY, int power):void
    + forward():void
	+ getPower():int
}

FlyingObject <|- - AbstractAircraft
FlyingObject <|- - AbstractBullet

AbstractAircraft <|- - HeroAircraft
AbstractAircraft <|- - MobEnemy

AbstractBullet <|- - HeroBullet
AbstractBullet <|- - EnemyBullet

class HeroAircraft {
    - int shootNum
    - int power
    - int direction
    + HeroAircraft(int locationX, int locationY, int speedX, int speedY, int hp):void
    + forward():void
    + shoot():List<Bullet>
}

class MobEnemy {
    + MobEnemy(int locationX, int locationY, int speedX, int speedY, int hp):void
    + forward():void
    + shoot():List<Bullet>
}

class ELiteEnemy {
    + ELiteEnemy(int locationX, int locationY, int speedX, int speedY, int hp):void
    + forward():void
    + shoot():List<Bullet>
}
AbstractAircraft <|- - ELiteEnemy

class HeroBullet {
    + HeroBullet(int locationX, int locationY, int speedX, int speedY, int power):void
}

class EnemyBullet {
    + EnemyBullet(int locationX, int locationY, int speedX, int speedY, int power):void
}

abstract class AbstractProp {
    - int power
    + AbstractProp(int locationX, int locationY, int speedX, int speedY):void
    + forward():void
	+ {abstract} handleAircrafts(List<AbstractAircraft> enemyAircrafts):void
}
FlyingObject <|- - AbstractProp

class BloodProp {
    # int increaseHp
    + BloodProp(int locationX, int locationY, int speedX, int speedY, int increaseHp):void
    + handleAircrafts(List<AbstractAircraft> enemyAircrafts):void
}
AbstractProp <|- - BloodProp

class BombProp {
    + BombProp(int locationX, int locationY, int speedX, int speedY):void
    + handleAircrafts(List<AbstractAircraft> enemyAircrafts):void
}
AbstractProp <|- - BombProp

class BulletProp {
    + BulletProp(int locationX, int locationY, int speedX, int speedY):void
    + handleAircrafts(List<AbstractAircraft> enemyAircrafts):void
}
AbstractProp <|- - BulletProp

@enduml

PlantUML version 1.2022.1(Wed Feb 02 02:19:58 CST 2022)
(GPL source distribution)
Java Runtime: OpenJDK Runtime Environment
JVM: OpenJDK 64-Bit Server VM
Default Encoding: GBK
Language: zh
Country: CN
--></g></svg>