<?xml version="1.0" encoding="UTF-8" standalone="no"?>
<svg xmlns="http://www.w3.org/2000/svg" contentScriptType="application/ecmascript" contentStyleType="text/css"
     height="561px" preserveAspectRatio="none" style="width:541px;height:561px;background:#FFFFFF;" version="1.1"
     viewBox="0 0 541 561" width="541px" zoomAndPan="magnify"><defs><filter height="300%" id="f751rsntxdi7z" width="300%" x="-1" y="-1"><feGaussianBlur result="blurOut" stdDeviation="2.0"/><feColorMatrix in="blurOut" result="blurOut2" type="matrix" values="0 0 0 0 0 0 0 0 0 0 0 0 0 0 0 0 0 0 .4 0"/><feOffset dx="4.0" dy="4.0" in="blurOut2" result="blurOut3"/><feBlend in="SourceGraphic" in2="blurOut3" mode="normal"/></filter></defs><g><!--MD5=[339bda480455fa4c76194a95f0a782c0]
class AbstractAircraft--><rect codeLine="3" fill="#FEFECE" filter="url(#f751rsntxdi7z)" height="227.8672" id="AbstractAircraft" style="stroke:#A80036;stroke-width:1.5;" width="264" x="9" y="320"/><ellipse cx="95.25" cy="336" fill="#A9DCDF" rx="11" ry="11" style="stroke:#A80036;stroke-width:1.0;"/><path d="M97,337.5 L93.7031,337.5 L93.2656,338.5 L93.2656,338.5 L93.7344,338.5 L94.25,339.125 L94.25,339.5 L94.25,339.875 L93.7344,340.5 L93.2656,340.5 L91.375,340.5 L90.7656,340.5 L90.25,339.875 L90.25,339.5 L90.25,339.125 L90.7656,338.5 L91.375,338.5 L93.6875,332.5 L92.8125,332.5 L91.7656,332.5 L91.25,331.875 L91.25,331.5 L91.25,331.125 L91.7656,330.5 L92.8125,330.5 L96.4844,330.5 L99.1719,338.5 L99.7344,338.5 L99.7344,338.5 L100.25,339.125 L100.25,339.5 L100.25,339.875 L99.7344,340.5 L99.1719,340.5 L97.2813,340.5 L96.7656,340.5 L96.25,339.875 L96.25,339.5 L96.25,339.125 L96.7656,338.5 L97.2813,338.5 L97.2813,338.5 L97,337.5 Z M96.4531,335.5 L95.25,331.9219 L94.2188,335.5 L96.4531,335.5 Z " fill="#000000"/><text fill="#000000" font-family="sans-serif" font-size="12" font-style="italic" lengthAdjust="spacing" textLength="83" x="115.75" y="340.9102">AbstractAircraft</text><line style="stroke:#A80036;stroke-width:1.5;" x1="10" x2="272" y1="352" y2="352"/><polygon fill="none" points="20,358,24,362,20,366,16,362" style="stroke:#B38D22;stroke-width:1.0;"/><text fill="#000000" font-family="sans-serif" font-size="11" lengthAdjust="spacing" textLength="47" x="29" y="367.4189">double hp</text><polygon fill="none" points="20,371.8359,24,375.8359,20,379.8359,16,375.8359" style="stroke:#B38D22;stroke-width:1.0;"/><text fill="#000000" font-family="sans-serif" font-size="11" lengthAdjust="spacing" textLength="68" x="29" y="381.2549">double maxHp</text><polygon fill="none" points="20,385.6719,24,389.6719,20,393.6719,16,389.6719" style="stroke:#B38D22;stroke-width:1.0;"/><text fill="#000000" font-family="sans-serif" font-size="11" lengthAdjust="spacing" textLength="63" x="29" y="395.0908">double score</text><rect fill="none" height="6" style="stroke:#C82930;stroke-width:1.0;" width="6" x="17" y="401.5078"/><text fill="#000000" font-family="sans-serif" font-size="11" lengthAdjust="spacing" text-decoration="underline" textLength="65" x="29" y="408.9268">lastPlayMusic</text><line style="stroke:#A80036;stroke-width:1.5;" x1="10" x2="272" y1="415.3438" y2="415.3438"/><ellipse cx="20" cy="426.3438" fill="#84BE84" rx="3" ry="3" style="stroke:#038048;stroke-width:1.0;"/><text fill="#000000" font-family="sans-serif" font-size="11" lengthAdjust="spacing" textLength="238" x="29" y="430.7627">AbstractAircraft(Vec2, AnimateContainer, int, int)</text><ellipse cx="20" cy="440.1797" fill="#84BE84" rx="3" ry="3" style="stroke:#038048;stroke-width:1.0;"/><text fill="#000000" font-family="sans-serif" font-size="11" lengthAdjust="spacing" textLength="104" x="29" y="444.5986">decreaseHp(int): void</text><ellipse cx="20" cy="454.0156" fill="#84BE84" rx="3" ry="3" style="stroke:#038048;stroke-width:1.0;"/><text fill="#000000" font-family="sans-serif" font-size="11" lengthAdjust="spacing" textLength="53" x="29" y="458.4346">getHp(): int</text><ellipse cx="20" cy="467.8516" fill="#84BE84" rx="3" ry="3" style="stroke:#038048;stroke-width:1.0;"/><text fill="#000000" font-family="sans-serif" font-size="11" lengthAdjust="spacing" textLength="69" x="29" y="472.2705">getScore(): int</text><polygon fill="#FFFF44" points="20,476.6875,24,480.6875,20,484.6875,16,480.6875" style="stroke:#B38D22;stroke-width:1.0;"/><text fill="#000000" font-family="sans-serif" font-size="11" lengthAdjust="spacing" textLength="73" x="29" y="486.1064">drawHp(): void</text><ellipse cx="20" cy="495.5234" fill="#84BE84" rx="3" ry="3" style="stroke:#038048;stroke-width:1.0;"/><text fill="#000000" font-family="sans-serif" font-size="11" font-style="italic" lengthAdjust="spacing" textLength="157" x="29" y="499.9424">shoot(): LinkedList&lt;BaseBullet&gt;</text><ellipse cx="20" cy="509.3594" fill="#84BE84" rx="3" ry="3" style="stroke:#038048;stroke-width:1.0;"/><text fill="#000000" font-family="sans-serif" font-size="11" font-style="italic" lengthAdjust="spacing" textLength="193" x="29" y="513.7783">dropProps(): LinkedList&lt;AbstractProp&gt;</text><ellipse cx="20" cy="523.1953" fill="#84BE84" rx="3" ry="3" style="stroke:#038048;stroke-width:1.0;"/><text fill="#000000" font-family="sans-serif" font-size="11" lengthAdjust="spacing" textLength="101" x="29" y="527.6143">onPropHandle(): void</text><polygon fill="#FFFF44" points="20,532.0313,24,536.0313,20,540.0313,16,536.0313" style="stroke:#B38D22;stroke-width:1.0;"/><text fill="#000000" font-family="sans-serif" font-size="11" lengthAdjust="spacing" textLength="123" x="29" y="541.4502">playBeShootMusic(): void</text><!--MD5=[0fa075462e87e7cf1ba247f5a79edf98]
class PropHandler--><rect codeLine="26" fill="#FEFECE" filter="url(#f751rsntxdi7z)" height="61.8359" id="PropHandler" style="stroke:#A80036;stroke-width:1.5;" width="127" x="215.5" y="198"/><ellipse cx="241.75" cy="214" fill="#B4A7E5" rx="11" ry="11" style="stroke:#A80036;stroke-width:1.0;"/><path d="M242.75,211 L242.75,217 L244.75,217 L245.2344,217 L245.75,217.625 L245.75,218 L245.75,218.375 L245.2344,219 L244.75,219 L238.75,219 L238.2656,219 L237.75,218.375 L237.75,218 L237.75,217.625 L238.2656,217 L238.75,217 L240.75,217 L240.75,211 L238.75,211 L238.2656,211 L237.75,210.375 L237.75,210 L237.75,209.625 L238.2656,209 L238.75,209 L244.75,209 L245.2344,209 L245.75,209.625 L245.75,210 L245.75,210.375 L245.2344,211 L244.75,211 L242.75,211 Z " fill="#000000"/><text fill="#000000" font-family="sans-serif" font-size="12" font-style="italic" lengthAdjust="spacing" textLength="70" x="258.25" y="218.9102">PropHandler</text><line style="stroke:#A80036;stroke-width:1.5;" x1="216.5" x2="341.5" y1="230" y2="230"/><line style="stroke:#A80036;stroke-width:1.5;" x1="216.5" x2="341.5" y1="238" y2="238"/><ellipse cx="226.5" cy="249" fill="#84BE84" rx="3" ry="3" style="stroke:#038048;stroke-width:1.0;"/><text fill="#000000" font-family="sans-serif" font-size="11" lengthAdjust="spacing" textLength="101" x="235.5" y="253.4189">onPropHandle(): void</text><!--MD5=[acfd88d95301123a45aeb138d334829f]
class BaseBullet--><rect codeLine="19" fill="#FEFECE" filter="url(#f751rsntxdi7z)" height="103.3438" id="BaseBullet" style="stroke:#A80036;stroke-width:1.5;" width="219" x="308.5" y="382.5"/><ellipse cx="384.25" cy="398.5" fill="#A9DCDF" rx="11" ry="11" style="stroke:#A80036;stroke-width:1.0;"/><path d="M386,400 L382.7031,400 L382.2656,401 L382.2656,401 L382.7344,401 L383.25,401.625 L383.25,402 L383.25,402.375 L382.7344,403 L382.2656,403 L380.375,403 L379.7656,403 L379.25,402.375 L379.25,402 L379.25,401.625 L379.7656,401 L380.375,401 L382.6875,395 L381.8125,395 L380.7656,395 L380.25,394.375 L380.25,394 L380.25,393.625 L380.7656,393 L381.8125,393 L385.4844,393 L388.1719,401 L388.7344,401 L388.7344,401 L389.25,401.625 L389.25,402 L389.25,402.375 L388.7344,403 L388.1719,403 L386.2813,403 L385.7656,403 L385.25,402.375 L385.25,402 L385.25,401.625 L385.7656,401 L386.2813,401 L386.2813,401 L386,400 Z M385.4531,398 L384.25,394.4219 L383.2188,398 L385.4531,398 Z " fill="#000000"/><text fill="#000000" font-family="sans-serif" font-size="12" font-style="italic" lengthAdjust="spacing" textLength="59" x="404.75" y="403.4102">BaseBullet</text><line style="stroke:#A80036;stroke-width:1.5;" x1="309.5" x2="526.5" y1="414.5" y2="414.5"/><rect fill="none" height="6" style="stroke:#C82930;stroke-width:1.0;" width="6" x="316.5" y="422.5"/><text fill="#000000" font-family="sans-serif" font-size="11" lengthAdjust="spacing" textLength="46" x="328.5" y="429.9189">int power</text><line style="stroke:#A80036;stroke-width:1.5;" x1="309.5" x2="526.5" y1="436.3359" y2="436.3359"/><ellipse cx="319.5" cy="447.3359" fill="#84BE84" rx="3" ry="3" style="stroke:#038048;stroke-width:1.0;"/><text fill="#000000" font-family="sans-serif" font-size="11" lengthAdjust="spacing" textLength="193" x="328.5" y="451.7549">BaseBullet(Vec2, AnimateContainer, int)</text><ellipse cx="319.5" cy="461.1719" fill="#84BE84" rx="3" ry="3" style="stroke:#038048;stroke-width:1.0;"/><text fill="#000000" font-family="sans-serif" font-size="11" lengthAdjust="spacing" textLength="72" x="328.5" y="465.5908">getPower(): int</text><ellipse cx="319.5" cy="475.0078" fill="#84BE84" rx="3" ry="3" style="stroke:#038048;stroke-width:1.0;"/><text fill="#000000" font-family="sans-serif" font-size="11" lengthAdjust="spacing" textLength="101" x="328.5" y="479.4268">onPropHandle(): void</text><!--MD5=[e8c240fbd41a6fb11f74e856f49b7df3]
class AbstractProp--><rect codeLine="30" fill="#FEFECE" filter="url(#f751rsntxdi7z)" height="131.0156" id="AbstractProp" style="stroke:#A80036;stroke-width:1.5;" width="335" x="111.5" y="7"/><ellipse cx="239.25" cy="23" fill="#A9DCDF" rx="11" ry="11" style="stroke:#A80036;stroke-width:1.0;"/><path d="M241,24.5 L237.7031,24.5 L237.2656,25.5 L237.2656,25.5 L237.7344,25.5 L238.25,26.125 L238.25,26.5 L238.25,26.875 L237.7344,27.5 L237.2656,27.5 L235.375,27.5 L234.7656,27.5 L234.25,26.875 L234.25,26.5 L234.25,26.125 L234.7656,25.5 L235.375,25.5 L237.6875,19.5 L236.8125,19.5 L235.7656,19.5 L235.25,18.875 L235.25,18.5 L235.25,18.125 L235.7656,17.5 L236.8125,17.5 L240.4844,17.5 L243.1719,25.5 L243.7344,25.5 L243.7344,25.5 L244.25,26.125 L244.25,26.5 L244.25,26.875 L243.7344,27.5 L243.1719,27.5 L241.2813,27.5 L240.7656,27.5 L240.25,26.875 L240.25,26.5 L240.25,26.125 L240.7656,25.5 L241.2813,25.5 L241.2813,25.5 L241,24.5 Z M240.4531,22.5 L239.25,18.9219 L238.2188,22.5 L240.4531,22.5 Z " fill="#000000"/><text fill="#000000" font-family="sans-serif" font-size="12" font-style="italic" lengthAdjust="spacing" textLength="71" x="259.75" y="27.9102">AbstractProp</text><line style="stroke:#A80036;stroke-width:1.5;" x1="112.5" x2="445.5" y1="39" y2="39"/><polygon fill="none" points="122.5,45,126.5,49,122.5,53,118.5,49" style="stroke:#B38D22;stroke-width:1.0;"/><text fill="#000000" font-family="sans-serif" font-size="11" lengthAdjust="spacing" textLength="186" x="131.5" y="54.4189">List&lt;AbstractAircraft&gt; enemyAircrafts</text><polygon fill="none" points="122.5,58.8359,126.5,62.8359,122.5,66.8359,118.5,62.8359" style="stroke:#B38D22;stroke-width:1.0;"/><text fill="#000000" font-family="sans-serif" font-size="11" lengthAdjust="spacing" textLength="147" x="131.5" y="68.2549">List&lt;BaseBullet&gt; enemyBullets</text><line style="stroke:#A80036;stroke-width:1.5;" x1="112.5" x2="445.5" y1="74.6719" y2="74.6719"/><ellipse cx="122.5" cy="85.6719" fill="#84BE84" rx="3" ry="3" style="stroke:#038048;stroke-width:1.0;"/><text fill="#000000" font-family="sans-serif" font-size="11" lengthAdjust="spacing" textLength="189" x="131.5" y="90.0908">AbstractProp(Vec2, AnimateContainer)</text><ellipse cx="122.5" cy="99.5078" fill="#84BE84" rx="3" ry="3" style="stroke:#038048;stroke-width:1.0;"/><text fill="#000000" font-family="sans-serif" font-size="11" lengthAdjust="spacing" textLength="115" x="131.5" y="103.9268">playSupplyMusic(): void</text><ellipse cx="122.5" cy="113.3438" fill="#84BE84" rx="3" ry="3" style="stroke:#038048;stroke-width:1.0;"/><text fill="#000000" font-family="sans-serif" font-size="11" lengthAdjust="spacing" textLength="309" x="131.5" y="117.7627">subscribeEnemyAircrafts(List&lt;AbstractAircraft&gt;): AbstractProp</text><ellipse cx="122.5" cy="127.1797" fill="#84BE84" rx="3" ry="3" style="stroke:#038048;stroke-width:1.0;"/><text fill="#000000" font-family="sans-serif" font-size="11" lengthAdjust="spacing" textLength="270" x="131.5" y="131.5986">subscribeEnemyBullets(List&lt;BaseBullet&gt;): AbstractProp</text><!--MD5=[c5352bebe15e4e42f7d53a35c7276b4c]
reverse link PropHandler to AbstractAircraft--><path d="M247.09,276.94 C238.25,289.94 228.26,304.64 218.02,319.7 " fill="none" id="PropHandler-backto-AbstractAircraft" style="stroke:#A80036;stroke-width:1.0;stroke-dasharray:7.0,7.0;"/><polygon fill="none" points="241.31,273,258.34,260.39,252.89,280.87,241.31,273" style="stroke:#A80036;stroke-width:1.0;"/><!--MD5=[dc607752d42760f9154f79dbd97d1e2b]
reverse link PropHandler to BaseBullet--><path d="M311.32,277.2 C332.88,308.69 361.22,350.08 383.27,382.27 " fill="none" id="PropHandler-backto-BaseBullet" style="stroke:#A80036;stroke-width:1.0;stroke-dasharray:7.0,7.0;"/><polygon fill="none" points="305.33,280.85,299.81,260.39,316.89,272.94,305.33,280.85" style="stroke:#A80036;stroke-width:1.0;"/><!--MD5=[be2b8f91c43fb7b774f16695f4ae33f6]
link AbstractProp to PropHandler--><path codeLine="38" d="M279,150.13 C279,150.13 279,174.26 279,184.69 " fill="none" id="AbstractProp-PropHandler" style="stroke:#A80036;stroke-width:1.0;"/><polygon fill="#A80036" points="279,197.72,283,188.72,279,192.72,275,188.72,279,197.72" style="stroke:#A80036;stroke-width:1.0;"/><line style="stroke:#A80036;stroke-width:1.0;" x1="279" x2="279" y1="192.72" y2="184.72"/><polygon fill="none" points="279,138.13,275,144.13,279,150.13,283,144.13,279,138.13" style="stroke:#A80036;stroke-width:1.0;"/><!--MD5=[d9cdd9507e86d8a90d8ddcb1a8e87378]
@startuml
'https: //plantuml.com/class-diagram

abstract class AbstractAircraft implements PropHandler {
	# double hp
	# double maxHp
	# double score
	- {static} lastPlayMusic
    + AbstractAircraft(Vec2, AnimateContainer, int, int)
    + decreaseHp(int): void
    + getHp(): int
    + getScore(): int
    # drawHp(): void
    + {abstract} shoot(): LinkedList<BaseBullet>
    + {abstract} dropProps(): LinkedList<AbstractProp>
    + onPropHandle(): void
    # playBeShootMusic(): void
 }

abstract class BaseBullet implements PropHandler {
    - int power
    + BaseBullet(Vec2, AnimateContainer, int)
	+ getPower(): int
	+ onPropHandle(): void
}

interface PropHandler {
    + onPropHandle(): void
}

abstract class AbstractProp {
    # List<AbstractAircraft> enemyAircrafts
    # List<BaseBullet> enemyBullets
    + AbstractProp(Vec2, AnimateContainer)
    + playSupplyMusic(): void
    + subscribeEnemyAircrafts(List<AbstractAircraft>): AbstractProp
    + subscribeEnemyBullets(List<BaseBullet>): AbstractProp
}
AbstractProp o- -> PropHandler

@enduml

@startuml

abstract class AbstractAircraft implements PropHandler {
	# double hp
	# double maxHp
	# double score
	- {static} lastPlayMusic
    + AbstractAircraft(Vec2, AnimateContainer, int, int)
    + decreaseHp(int): void
    + getHp(): int
    + getScore(): int
    # drawHp(): void
    + {abstract} shoot(): LinkedList<BaseBullet>
    + {abstract} dropProps(): LinkedList<AbstractProp>
    + onPropHandle(): void
    # playBeShootMusic(): void
 }

abstract class BaseBullet implements PropHandler {
    - int power
    + BaseBullet(Vec2, AnimateContainer, int)
	+ getPower(): int
	+ onPropHandle(): void
}

interface PropHandler {
    + onPropHandle(): void
}

abstract class AbstractProp {
    # List<AbstractAircraft> enemyAircrafts
    # List<BaseBullet> enemyBullets
    + AbstractProp(Vec2, AnimateContainer)
    + playSupplyMusic(): void
    + subscribeEnemyAircrafts(List<AbstractAircraft>): AbstractProp
    + subscribeEnemyBullets(List<BaseBullet>): AbstractProp
}
AbstractProp o- -> PropHandler

@enduml

PlantUML version 1.2022.1(Wed Feb 02 02:19:58 CST 2022)
(GPL source distribution)
Java Runtime: OpenJDK Runtime Environment
JVM: OpenJDK 64-Bit Server VM
Default Encoding: UTF-8
Language: zh
Country: CN
--></g></svg>